<mxfile host="app.diagrams.net" modified="2022-09-06T10:21:01.383Z" agent="5.0 (Macintosh; Intel Mac OS X 10_15_7) AppleWebKit/537.36 (KHTML, like Gecko) Chrome/103.0.5060.134 Safari/537.36 OPR/89.0.4447.83" etag="Y7GoqpYkjDL-79OWmTmz" version="20.2.3" type="github">
  <diagram id="zyeePBIljruWcVRbEJz0" name="Page-1">
    <mxGraphModel dx="1216" dy="788" grid="1" gridSize="10" guides="1" tooltips="1" connect="1" arrows="1" fold="1" page="1" pageScale="1" pageWidth="827" pageHeight="1169" math="0" shadow="0">
      <root>
        <mxCell id="0" />
        <mxCell id="1" parent="0" />
        <mxCell id="G7-NhP7lyWdFC4_e1SLq-4" style="edgeStyle=orthogonalEdgeStyle;rounded=0;orthogonalLoop=1;jettySize=auto;html=1;exitX=0.5;exitY=1;exitDx=0;exitDy=0;entryX=0.5;entryY=0;entryDx=0;entryDy=0;sketch=1;" edge="1" parent="1" source="G7-NhP7lyWdFC4_e1SLq-1" target="G7-NhP7lyWdFC4_e1SLq-2">
          <mxGeometry relative="1" as="geometry" />
        </mxCell>
        <mxCell id="G7-NhP7lyWdFC4_e1SLq-1" value="" style="rounded=0;whiteSpace=wrap;html=1;fillColor=#f5f5f5;fontColor=#333333;strokeColor=#666666;sketch=1;" vertex="1" parent="1">
          <mxGeometry x="41" y="100" width="120" height="60" as="geometry" />
        </mxCell>
        <mxCell id="G7-NhP7lyWdFC4_e1SLq-5" style="edgeStyle=orthogonalEdgeStyle;rounded=0;sketch=1;orthogonalLoop=1;jettySize=auto;html=1;exitX=0.5;exitY=1;exitDx=0;exitDy=0;entryX=0.5;entryY=0;entryDx=0;entryDy=0;" edge="1" parent="1" source="G7-NhP7lyWdFC4_e1SLq-2" target="G7-NhP7lyWdFC4_e1SLq-3">
          <mxGeometry relative="1" as="geometry" />
        </mxCell>
        <mxCell id="G7-NhP7lyWdFC4_e1SLq-2" value="" style="rounded=0;whiteSpace=wrap;html=1;fillColor=#f5f5f5;fontColor=#333333;strokeColor=#666666;sketch=1;" vertex="1" parent="1">
          <mxGeometry x="41" y="200" width="120" height="60" as="geometry" />
        </mxCell>
        <mxCell id="G7-NhP7lyWdFC4_e1SLq-3" value="" style="rounded=0;whiteSpace=wrap;html=1;sketch=1;fillColor=#f5f5f5;fontColor=#333333;strokeColor=#666666;" vertex="1" parent="1">
          <mxGeometry x="41" y="300" width="120" height="60" as="geometry" />
        </mxCell>
        <mxCell id="G7-NhP7lyWdFC4_e1SLq-7" style="edgeStyle=orthogonalEdgeStyle;rounded=0;orthogonalLoop=1;jettySize=auto;html=1;exitX=0.5;exitY=1;exitDx=0;exitDy=0;sketch=1;" edge="1" parent="1">
          <mxGeometry relative="1" as="geometry">
            <mxPoint x="101" y="62" as="sourcePoint" />
            <mxPoint x="101" y="102" as="targetPoint" />
          </mxGeometry>
        </mxCell>
        <mxCell id="G7-NhP7lyWdFC4_e1SLq-8" style="edgeStyle=orthogonalEdgeStyle;rounded=0;orthogonalLoop=1;jettySize=auto;html=1;exitX=0.5;exitY=1;exitDx=0;exitDy=0;entryX=0.5;entryY=0;entryDx=0;entryDy=0;sketch=1;" edge="1" parent="1">
          <mxGeometry relative="1" as="geometry">
            <mxPoint x="101" y="360" as="sourcePoint" />
            <mxPoint x="101" y="400" as="targetPoint" />
          </mxGeometry>
        </mxCell>
        <mxCell id="G7-NhP7lyWdFC4_e1SLq-9" value="Sequenz" style="text;html=1;strokeColor=none;fillColor=none;align=center;verticalAlign=middle;whiteSpace=wrap;rounded=0;sketch=1;fontSize=20;fontFamily=Comic Sans MS;fontColor=#000033;" vertex="1" parent="1">
          <mxGeometry x="71" y="420" width="60" height="30" as="geometry" />
        </mxCell>
        <mxCell id="G7-NhP7lyWdFC4_e1SLq-13" style="edgeStyle=orthogonalEdgeStyle;rounded=0;sketch=1;orthogonalLoop=1;jettySize=auto;html=1;exitX=0;exitY=0.5;exitDx=0;exitDy=0;fontFamily=Comic Sans MS;fontSize=20;fontColor=#000033;fillColor=#dae8fc;strokeColor=#6c8ebf;" edge="1" parent="1" source="G7-NhP7lyWdFC4_e1SLq-10" target="G7-NhP7lyWdFC4_e1SLq-11">
          <mxGeometry relative="1" as="geometry" />
        </mxCell>
        <mxCell id="G7-NhP7lyWdFC4_e1SLq-14" style="edgeStyle=orthogonalEdgeStyle;rounded=0;sketch=1;orthogonalLoop=1;jettySize=auto;html=1;exitX=1;exitY=0.5;exitDx=0;exitDy=0;fontFamily=Comic Sans MS;fontSize=20;fontColor=#000033;fillColor=#dae8fc;strokeColor=#6c8ebf;" edge="1" parent="1" source="G7-NhP7lyWdFC4_e1SLq-10" target="G7-NhP7lyWdFC4_e1SLq-12">
          <mxGeometry relative="1" as="geometry" />
        </mxCell>
        <mxCell id="G7-NhP7lyWdFC4_e1SLq-10" value="" style="rhombus;whiteSpace=wrap;html=1;sketch=1;fontFamily=Comic Sans MS;fontSize=20;fillColor=#dae8fc;strokeColor=#6c8ebf;" vertex="1" parent="1">
          <mxGeometry x="340" y="98" width="80" height="80" as="geometry" />
        </mxCell>
        <mxCell id="G7-NhP7lyWdFC4_e1SLq-16" style="edgeStyle=orthogonalEdgeStyle;rounded=0;sketch=1;orthogonalLoop=1;jettySize=auto;html=1;exitX=0.5;exitY=1;exitDx=0;exitDy=0;entryX=0;entryY=0.5;entryDx=0;entryDy=0;fontFamily=Comic Sans MS;fontSize=20;fontColor=#000033;fillColor=#dae8fc;strokeColor=#6c8ebf;" edge="1" parent="1" source="G7-NhP7lyWdFC4_e1SLq-11" target="G7-NhP7lyWdFC4_e1SLq-15">
          <mxGeometry relative="1" as="geometry" />
        </mxCell>
        <mxCell id="G7-NhP7lyWdFC4_e1SLq-11" value="" style="rounded=0;whiteSpace=wrap;html=1;fillColor=#dae8fc;strokeColor=#6c8ebf;sketch=1;" vertex="1" parent="1">
          <mxGeometry x="230" y="200" width="120" height="60" as="geometry" />
        </mxCell>
        <mxCell id="G7-NhP7lyWdFC4_e1SLq-17" style="edgeStyle=orthogonalEdgeStyle;rounded=0;sketch=1;orthogonalLoop=1;jettySize=auto;html=1;exitX=0.5;exitY=1;exitDx=0;exitDy=0;entryX=1;entryY=0.5;entryDx=0;entryDy=0;fontFamily=Comic Sans MS;fontSize=20;fontColor=#000033;fillColor=#dae8fc;strokeColor=#6c8ebf;" edge="1" parent="1" source="G7-NhP7lyWdFC4_e1SLq-12" target="G7-NhP7lyWdFC4_e1SLq-15">
          <mxGeometry relative="1" as="geometry" />
        </mxCell>
        <mxCell id="G7-NhP7lyWdFC4_e1SLq-12" value="" style="rounded=0;whiteSpace=wrap;html=1;fillColor=#dae8fc;strokeColor=#6c8ebf;sketch=1;" vertex="1" parent="1">
          <mxGeometry x="410" y="201" width="120" height="60" as="geometry" />
        </mxCell>
        <mxCell id="G7-NhP7lyWdFC4_e1SLq-15" value="" style="ellipse;whiteSpace=wrap;html=1;aspect=fixed;sketch=1;fontFamily=Comic Sans MS;fontSize=20;fillColor=#dae8fc;strokeColor=#6c8ebf;" vertex="1" parent="1">
          <mxGeometry x="340" y="289" width="80" height="80" as="geometry" />
        </mxCell>
        <mxCell id="G7-NhP7lyWdFC4_e1SLq-18" style="edgeStyle=orthogonalEdgeStyle;rounded=0;orthogonalLoop=1;jettySize=auto;html=1;exitX=0.5;exitY=1;exitDx=0;exitDy=0;sketch=1;fillColor=#dae8fc;strokeColor=#6c8ebf;" edge="1" parent="1">
          <mxGeometry relative="1" as="geometry">
            <mxPoint x="381" y="60" as="sourcePoint" />
            <mxPoint x="381" y="100" as="targetPoint" />
          </mxGeometry>
        </mxCell>
        <mxCell id="G7-NhP7lyWdFC4_e1SLq-19" style="edgeStyle=orthogonalEdgeStyle;rounded=0;orthogonalLoop=1;jettySize=auto;html=1;exitX=0.5;exitY=1;exitDx=0;exitDy=0;sketch=1;fillColor=#dae8fc;strokeColor=#6c8ebf;" edge="1" parent="1">
          <mxGeometry relative="1" as="geometry">
            <mxPoint x="381" y="370" as="sourcePoint" />
            <mxPoint x="381" y="400" as="targetPoint" />
          </mxGeometry>
        </mxCell>
        <mxCell id="G7-NhP7lyWdFC4_e1SLq-20" value="&lt;font color=&quot;#003366&quot;&gt;Auswahl&lt;/font&gt;" style="text;html=1;strokeColor=none;fillColor=none;align=center;verticalAlign=middle;whiteSpace=wrap;rounded=0;sketch=1;fontSize=20;fontFamily=Comic Sans MS;" vertex="1" parent="1">
          <mxGeometry x="350" y="420" width="60" height="30" as="geometry" />
        </mxCell>
        <mxCell id="G7-NhP7lyWdFC4_e1SLq-25" style="edgeStyle=orthogonalEdgeStyle;rounded=0;sketch=1;orthogonalLoop=1;jettySize=auto;html=1;exitX=0.5;exitY=1;exitDx=0;exitDy=0;fontFamily=Comic Sans MS;fontSize=20;fontColor=#003366;fillColor=#ffe6cc;strokeColor=#d79b00;" edge="1" parent="1" source="G7-NhP7lyWdFC4_e1SLq-21" target="G7-NhP7lyWdFC4_e1SLq-23">
          <mxGeometry relative="1" as="geometry" />
        </mxCell>
        <mxCell id="G7-NhP7lyWdFC4_e1SLq-27" style="edgeStyle=orthogonalEdgeStyle;rounded=0;sketch=1;orthogonalLoop=1;jettySize=auto;html=1;exitX=1;exitY=0.5;exitDx=0;exitDy=0;fontFamily=Comic Sans MS;fontSize=20;fontColor=#003366;fillColor=#ffe6cc;strokeColor=#d79b00;" edge="1" parent="1" source="G7-NhP7lyWdFC4_e1SLq-21">
          <mxGeometry relative="1" as="geometry">
            <mxPoint x="790" y="350" as="targetPoint" />
          </mxGeometry>
        </mxCell>
        <mxCell id="G7-NhP7lyWdFC4_e1SLq-21" value="" style="rhombus;whiteSpace=wrap;html=1;sketch=1;fontFamily=Comic Sans MS;fontSize=20;fillColor=#ffe6cc;strokeColor=#d79b00;" vertex="1" parent="1">
          <mxGeometry x="660" y="98" width="80" height="80" as="geometry" />
        </mxCell>
        <mxCell id="G7-NhP7lyWdFC4_e1SLq-22" style="edgeStyle=orthogonalEdgeStyle;rounded=0;orthogonalLoop=1;jettySize=auto;html=1;exitX=0.5;exitY=1;exitDx=0;exitDy=0;sketch=1;fillColor=#ffe6cc;strokeColor=#d79b00;" edge="1" parent="1">
          <mxGeometry relative="1" as="geometry">
            <mxPoint x="701" y="60" as="sourcePoint" />
            <mxPoint x="701" y="100" as="targetPoint" />
          </mxGeometry>
        </mxCell>
        <mxCell id="G7-NhP7lyWdFC4_e1SLq-26" style="edgeStyle=orthogonalEdgeStyle;rounded=0;sketch=1;orthogonalLoop=1;jettySize=auto;html=1;exitX=0.5;exitY=1;exitDx=0;exitDy=0;entryX=0;entryY=0.5;entryDx=0;entryDy=0;fontFamily=Comic Sans MS;fontSize=20;fontColor=#003366;fillColor=#ffe6cc;strokeColor=#d79b00;" edge="1" parent="1" source="G7-NhP7lyWdFC4_e1SLq-23" target="G7-NhP7lyWdFC4_e1SLq-21">
          <mxGeometry relative="1" as="geometry">
            <Array as="points">
              <mxPoint x="700" y="310" />
              <mxPoint x="600" y="310" />
              <mxPoint x="600" y="138" />
            </Array>
          </mxGeometry>
        </mxCell>
        <mxCell id="G7-NhP7lyWdFC4_e1SLq-23" value="" style="rounded=0;whiteSpace=wrap;html=1;fillColor=#ffe6cc;strokeColor=#d79b00;sketch=1;" vertex="1" parent="1">
          <mxGeometry x="640" y="200" width="120" height="60" as="geometry" />
        </mxCell>
        <mxCell id="G7-NhP7lyWdFC4_e1SLq-28" value="&lt;font color=&quot;#994c00&quot;&gt;Iteration&lt;/font&gt;" style="text;html=1;strokeColor=none;fillColor=none;align=center;verticalAlign=middle;whiteSpace=wrap;rounded=0;sketch=1;fontSize=20;fontFamily=Comic Sans MS;" vertex="1" parent="1">
          <mxGeometry x="660" y="420" width="60" height="30" as="geometry" />
        </mxCell>
      </root>
    </mxGraphModel>
  </diagram>
</mxfile>
